# xmcd
#
# Track frame offsets:
# 150
# 23005
# 46877
# 87901
# 121271
# 142500
# 164529
# 187013
# 207295
# 228921
# 248736
# 272749
# 289428
#
# Disc length: 4085 seconds
#
#
# Revision: 0
# Processed by: cddbd v1.5.2PL0 Copyright (c) Steve Scherf et al.
# Submitted via: FreeRIP 2.96 
#
DISCID=b00ff30d
DTITLE=Marvin Sapp - Be Exalted
DYEAR=2005
DGENRE=Gospel
TTITLE0=Be It Unto Me
TTITLE1=Do You Know Him? - (Trendsetters mix)
TTITLE2=Be Exalted
TTITLE3=Trust In You
TTITLE4=Changed
TTITLE5=Perfect Peace
TTITLE6=Holy
TTITLE7=Everything That I Am
TTITLE8=That Name
TTITLE9=Smile
TTITLE10=Strong Tower
TTITLE11=He Won't Fall
TTITLE12=Do You Know Him? - (Tommygunn 1965 mix, bonus track)
EXTD=Snoop of K and S Wireless
EXTT0=
EXTT1=
EXTT2=
EXTT3=
EXTT4=
EXTT5=
EXTT6=
EXTT7=
EXTT8=
EXTT9=
EXTT10=
EXTT11=
EXTT12=
PLAYORDER=
